<svg xmlns="http://www.w3.org/2000/svg" width="384" height="384" viewBox="0 0 384 384">
  <path fill="#0d4520" d="M384 192c0 106.04-85.97 192-192 192C85.95 384 0 298.04 0 192 0 85.97 85.96 0 192 0c106.03 0 192 85.97 192 192"/>
  <path fill="#fff" d="M211.17 292.92c-6.32.63-13.25 2.1-18.84 2-5.6.1-12.53-1.37-18.85-2-1-.1-1.75.63-1.75.63-3.7 7.87 17.5 12.22 20.54 12.08 3.05.14 24.34-4.2 20.66-12.08 0 0-.76-.74-1.76-.63M134.64 188.4c5.85-5.37 21.04 11.8 17.67 25.24-1.4.5-2.2-.36-5.7-6.08-2.5-4.36-8.8-3.5-11.8-5.24-4.8-3.12-4.6-9.84-.1-13.93zm-3.74 51.75c3.24 8.7 10.7 23.15 20.03 36.72-2.6-21.54 9.34-35.72 12.08-41.57 5.2-7.83 10.5-24.9 7.4-32.1-5-2-10.9-5.86-14.6-11.34-3.6-5.22-5.7-11.06-12-12.8-4.2-1.5-9-.63-12.4 1.24-5.6 3.23-6.9 10.94-7.8 17.04-.3 12.57 2 31.12 7.5 42.8m118.3-51.74c4.6 4.08 4.8 10.8-.1 13.92-2.8 1.74-9.2.88-11.8 5.24-3.5 5.72-4.2 6.58-5.7 6.08-3.3-13.43 11.8-30.6 17.7-25.25zm-16.1 88.47c9.3-13.57 16.8-28 19.9-36.72 5.5-11.7 8-30.24 7.5-42.8-.8-6.1-2.3-13.82-7.9-17.05-3.5-1.87-8.2-2.75-12.4-1.25-6.34 1.75-8.34 7.6-12.1 12.8-3.6 5.5-9.6 9.35-14.54 11.35-3.1 7.2 2.27 24.27 7.37 32.1 2.8 5.85 14.6 20.03 12.1 41.57m-161.9-95.6c-.6 5.37 6.6 11.1 11.2 14.46 4.77 3.6 12.2 3.85 16.1 9.7 3.27 4.97 5.9 12.56 6.77 19.42 1.5 13.2 1.27 29.74 10.5 40.7 1.73-6.48-3-21.03-3.1-39.83-.15-6.97-2.75-14.94-6.85-20.18 7.6-.6 7.7.4 8.4-1.98.7-2.36-.8-4.98-2.5-7.08-5.5-6.35-13.3-3-20.3-5.24-4.6-1.62-11.7-3.98-12.1-10.44-.25-4.36 13.44-5.36 13.44-5.36 10.94.86 9.7 7.1 17.3 7.7 6.2.5 8.83-6.08 10.83-10.07 3-6.34 6.5-19.9-6.2-17.93-6.6 1.13-7.9 10.85-2.9 16.7-4.6-.5-11.45-6.86-27.6-1.76-5.6 1.75-11.96 4-12.8 11.2m91.3 102.44c6.3 5.47 14.7 9.2 26.1 5.72 2.9-2 1.25-7.84-.2-10.47-5.4-6.96-13.7-4.2-16.1-7.7-2.24-3.36-.73-5.98.6-7.7 2-2.5 5.2-1.88 8-1.14 4.88 1.1 8.18 3.14 11.2 6.12v.22l.14-.1.1.1v-.23c2.9-2.98 6.33-5 11.2-6.1 2.6-.75 5.95-1.37 7.82 1.12 1.5 1.73 2.85 4.35.62 7.7-2.36 3.5-10.57.75-15.9 7.7-1.5 2.64-3.27 8.5-.4 10.48 11.6 3.48 19.8-.25 26.13-5.72 14.44-12.33-5.23-38.34-14.94-48.8-5.4-5.77-8.74-10.8-14.55-10.93v-.1h-.2c-5.9.1-9.12 5.1-14.64 10.9-9.57 10.4-29.25 36.4-14.93 48.8M276 183.1c7.6-.6 6.43-6.9 17.4-7.7 0 0 13.7 1 13.44 5.3-.5 6.4-7.6 8.8-12.2 10.4-6.86 2.22-14.7-1.1-20.3 5.22-1.74 2.1-3.13 4.76-2.5 7.1.6 2.4.9 1.4 8.46 2-4.25 5.25-6.7 13.2-6.86 20.2-.3 18.8-5 33.37-3.1 39.85 9-10.96 8.9-27.5 10.4-40.7.82-6.86 3.3-14.45 6.7-19.4 3.84-5.87 11.2-6.1 16.03-9.7 4.6-3.36 11.8-9.1 11.2-14.44-.9-7.2-7.25-9.46-12.8-11.2-16.2-5.1-23.08 1.24-27.8 1.74 5.1-5.84 3.85-15.56-2.86-16.7-12.5-2-9.1 11.6-6.1 17.94 2 4 4.5 10.6 10.7 10.1"/>
  <path fill="#fff" d="M153.28 155.98c3.65 3.36 20.1 0 23.25-3.86 4.15-4.98 12.44-22.9 3.02-34.72-13-16.46-65.32-63.7-114.8-28.08 12.05-16.6 30.2-31.57 51.9-42.7 24.44-12.52 51.22-19.03 75.4-18.37h.14c24.1-.66 50.8 5.85 75.2 18.38 21.6 11.1 39.7 26.08 51.8 42.68-49.6-35.6-101.8 11.7-114.9 28.1-9.3 11.9-1.2 29.8 3 34.8 3.3 3.9 19.7 7.2 23.4 3.9 23.3-21 36.9-66.7 114.5-20.9-8.4-1.2-24-5.8-31.2-1.2-20.9 13 29.4 42.8-3.4 102 .2.4 19.2-9.4 26.5-9.2 4.7.3 7.3 3.5 6.5 8.4-1 6.7-6.2 11-10.5 14.6-18.3 14.9-44.8 50.8-31.5 50 13.2-.6 42.6-43.8 47.2-54.1-5.4 18.06-16.2 35.1-27.1 49.9-5.8 7.86-12.45 14.3-20.88 17.3-5.3 2.1-10.86 3-16.26.5-4.26-1.85-6.9-6.1-7.67-10.82-.95-7 2.9-15.2 6.3-20.7 4.7-7.84 15.36-21.53 27.67-30.6 17.5-13 29.7-16.6 25.2-19.6-3.16-2.1-19.74 7-23 8.74-18.6 9.6-44.3 37.3-47.3 57.9-2.1 14.17 11.9 24.8 23.95 24.3-39.95 32.1-83.4 33.1-98 33.47h-.16c-14.7-.34-58.3-1.44-98.1-33.47 12.03.5 26.04-10.16 23.95-24.3-3-20.57-28.8-48.3-47.3-57.9-3.23-1.75-19.83-10.84-23-8.73-4.5 3 7.7 6.6 25.17 19.58 12.3 9.1 22.9 22.78 27.5 30.6 3.54 5.5 7.4 13.7 6.4 20.67-.73 4.8-3.5 9-7.64 10.9-5.4 2.5-10.9 1.6-16.3-.5-8.3-3-14.97-9.43-20.76-17.3-10.93-14.8-21.6-31.83-27.03-49.9 4.65 10.3 34.1 53.5 47.15 54.1 13.42.8-13.1-35.1-31.3-50-4.4-3.6-9.4-7.8-10.4-14.6-.8-4.8 1.7-8.1 6.5-8.3 7.3-.23 26.25 9.6 26.5 9.2-32.9-59.1 17.5-89-3.4-101.9-7.3-4.6-22.74 0-31.2 1.28 77.6-45.8 91.1-.1 114.5 20.9zm172.33-61.6zm-30.5 227zm-103 44.74c95.8 0 174-78.3 174-174.12 0-95.94-78.1-174.1-174-174.1S18 96.06 18 192c0 95.83 78.15 174.12 174.1 174.12"/>
</svg>
